<svg width="27" height="27" viewBox="0 0 27 27" fill="none" xmlns="http://www.w3.org/2000/svg">
<path d="M9.73333 26.6667L9.2 22.4C8.91111 22.2889 8.63889 22.1556 8.38333 22C8.12778 21.8444 7.87778 21.6778 7.63333 21.5L3.66667 23.1667L0 16.8333L3.43333 14.2333C3.41111 14.0778 3.4 13.9278 3.4 13.7833V12.8833C3.4 12.7389 3.41111 12.5889 3.43333 12.4333L0 9.83333L3.66667 3.5L7.63333 5.16667C7.87778 4.98889 8.13333 4.82222 8.4 4.66667C8.66667 4.51111 8.93333 4.37778 9.2 4.26667L9.73333 0H17.0667L17.6 4.26667C17.8889 4.37778 18.1611 4.51111 18.4167 4.66667C18.6722 4.82222 18.9222 4.98889 19.1667 5.16667L23.1333 3.5L26.8 9.83333L23.3667 12.4333C23.3889 12.5889 23.4 12.7389 23.4 12.8833V13.7833C23.4 13.9278 23.3778 14.0778 23.3333 14.2333L26.7667 16.8333L23.1 23.1667L19.1667 21.5C18.9222 21.6778 18.6667 21.8444 18.4 22C18.1333 22.1556 17.8667 22.2889 17.6 22.4L17.0667 26.6667H9.73333ZM13.4667 18C14.7556 18 15.8556 17.5444 16.7667 16.6333C17.6778 15.7222 18.1333 14.6222 18.1333 13.3333C18.1333 12.0444 17.6778 10.9444 16.7667 10.0333C15.8556 9.12222 14.7556 8.66667 13.4667 8.66667C12.1556 8.66667 11.05 9.12222 10.15 10.0333C9.25 10.9444 8.8 12.0444 8.8 13.3333C8.8 14.6222 9.25 15.7222 10.15 16.6333C11.05 17.5444 12.1556 18 13.4667 18Z" fill="#FCF9F9"/>
</svg>
