<svg width="24" height="24" viewBox="0 0 24 24" fill="none" xmlns="http://www.w3.org/2000/svg">
<mask id="mask0_61015_26976" style="mask-type:alpha" maskUnits="userSpaceOnUse" x="0" y="0" width="24" height="24">
<rect width="24" height="24" fill="#D9D9D9"/>
</mask>
<g mask="url(#mask0_61015_26976)">
<path d="M2 11L7 2L12 11H2ZM4.19175 19.825C3.40842 19.0417 3.01675 18.1 3.01675 17C3.01675 15.8833 3.40842 14.9375 4.19175 14.1625C4.97508 13.3875 5.91675 13 7.01675 13C8.11675 13 9.05842 13.3917 9.84175 14.175C10.6251 14.9583 11.0168 15.9 11.0168 17C11.0168 18.1 10.6251 19.0417 9.84175 19.825C9.05842 20.6083 8.11675 21 7.01675 21C5.91675 21 4.97508 20.6083 4.19175 19.825ZM8.67075 18.6542C9.12358 18.2014 9.35 17.65 9.35 17C9.35 16.35 9.12358 15.7986 8.67075 15.3457C8.21808 14.8931 7.66675 14.6668 7.01675 14.6668C6.36675 14.6668 5.81533 14.8931 5.3625 15.3457C4.90967 15.7986 4.68325 16.35 4.68325 17C4.68325 17.65 4.90967 18.2014 5.3625 18.6542C5.81533 19.1069 6.36675 19.3333 7.01675 19.3333C7.66675 19.3333 8.21808 19.1069 8.67075 18.6542ZM4.83325 9.33325H9.16675L7 5.44175L4.83325 9.33325ZM13 21V13H21V21H13ZM14.6668 19.3333H19.3333V14.6668H14.6668V19.3333ZM17 11C16.05 10.2 15.2542 9.525 14.6125 8.975C13.9708 8.425 13.4583 7.94167 13.075 7.525C12.6917 7.10833 12.4167 6.71667 12.25 6.35C12.0833 5.98333 12 5.59167 12 5.175C12 4.425 12.2625 3.79167 12.7875 3.275C13.3125 2.75833 13.9667 2.5 14.75 2.5C15.1888 2.5 15.6069 2.60142 16.0043 2.80425C16.4014 3.00692 16.7333 3.29717 17 3.675C17.2667 3.29717 17.5986 3.00692 17.9958 2.80425C18.3931 2.60142 18.8112 2.5 19.25 2.5C20.0333 2.5 20.6875 2.75833 21.2125 3.275C21.7375 3.79167 22 4.425 22 5.175C22 5.59167 21.9167 5.98333 21.75 6.35C21.5833 6.71667 21.3083 7.10833 20.925 7.525C20.5417 7.94167 20.0292 8.425 19.3875 8.975C18.7458 9.525 17.95 10.2 17 11ZM17 8.80825C18.3445 7.69725 19.2362 6.90558 19.675 6.43325C20.1138 5.96108 20.3333 5.55833 20.3333 5.225C20.3333 4.90867 20.241 4.65317 20.0565 4.4585C19.872 4.264 19.6198 4.16675 19.3 4.16675C19.0988 4.16675 18.9028 4.22092 18.7118 4.32925C18.5206 4.43758 18.2806 4.62508 17.9918 4.89175L17 5.83325L16.0083 4.89175C15.7231 4.62108 15.4838 4.43258 15.2903 4.32625C15.0968 4.21992 14.9 4.16675 14.7 4.16675C14.3802 4.16675 14.128 4.264 13.9435 4.4585C13.759 4.65317 13.6668 4.90867 13.6668 5.225C13.6668 5.55833 13.8862 5.96108 14.325 6.43325C14.7638 6.90558 15.6555 7.69725 17 8.80825Z" fill="#1B1B1C"/>
</g>
</svg>
