<svg width="40" height="40" viewBox="0 0 40 40" fill="none" xmlns="http://www.w3.org/2000/svg">
<mask id="mask0_1_33902" style="mask-type:alpha" maskUnits="userSpaceOnUse" x="0" y="0" width="40" height="40">
<rect width="40" height="40" fill="#D9D9D9"/>
</mask>
<g mask="url(#mask0_1_33902)">
<path d="M10.9721 33.9862V19.6112H14.1667C14.3286 19.6112 14.4907 19.6293 14.6529 19.6654C14.8149 19.7015 14.9768 19.7436 15.1388 19.7916L25.7917 23.7779C26.4028 24.0093 26.9143 24.3795 27.3263 24.8887C27.7385 25.3982 27.9446 25.9676 27.9446 26.597C27.9446 26.9407 27.8311 27.2187 27.6042 27.4312C27.3772 27.6437 27.1018 27.75 26.7779 27.75H23.2917C22.8195 27.75 22.3635 27.7152 21.9238 27.6458C21.4838 27.5764 21.0415 27.4676 20.5971 27.3195L17.6804 26.3054L17.2221 27.625L20.375 28.722C20.875 28.8982 21.4028 29.0116 21.9583 29.0625C22.5139 29.1133 23.0649 29.1387 23.6113 29.1387H32.8333C33.9075 29.1387 34.8149 29.5369 35.5554 30.3333C36.2963 31.1297 36.6667 32.0926 36.6667 33.222L23.5417 37.5554L10.9721 33.9862ZM1.66667 36.6666V19.6112H8.16667V36.6666H1.66667ZM24.4446 13.6112H26.1113V11.9445H24.4446V13.6112ZM21.1113 13.6112H22.7779V11.9445H21.1113V13.6112ZM24.4446 16.9445H26.1113V15.2779H24.4446V16.9445ZM21.1113 16.9445H22.7779V15.2779H21.1113V16.9445ZM30.4583 24.3054C30.1064 23.3887 29.6064 22.6157 28.9583 21.9862C28.3103 21.3565 27.4954 20.8565 26.5138 20.4862L15 16.1666H12.2221V10.3612L23.6113 2.22205L35 10.3612V24.3054H30.4583Z" fill="#141C25"/>
</g>
</svg>
