<svg width="24" height="24" viewBox="0 0 24 24" fill="none" xmlns="http://www.w3.org/2000/svg">
<path d="M11.5 5.42295V2.03845H12.5V5.42295H11.5ZM16.9963 7.71145L16.2885 6.98445L18.6905 4.57695L19.398 5.30945L16.9963 7.71145ZM18.577 12.5V11.5H21.9615V12.5H18.577ZM18.6905 19.398L16.2885 16.9962L17.0155 16.2692L19.423 18.6655L18.6905 19.398ZM7.02303 7.7307L4.58278 5.29045L5.31553 4.5962L7.73078 7.02295L7.02303 7.7307ZM6.57703 19.1155H10.6923C11.2371 19.1155 11.7067 18.9183 12.101 18.524C12.4952 18.1298 12.6923 17.6603 12.6923 17.1155C12.6923 16.5705 12.5025 16.104 12.123 15.7162C11.7435 15.3284 11.2814 15.1345 10.7365 15.1345H9.76928L9.40378 14.2615C9.14494 13.6601 8.74303 13.1842 8.19803 12.8337C7.65319 12.483 7.04869 12.3077 6.38453 12.3077C5.46153 12.3077 4.67953 12.6282 4.03853 13.2692C3.39753 13.9102 3.07703 14.6923 3.07703 15.6155C3.07703 16.5898 3.41678 17.4167 4.09628 18.0962C4.77578 18.7757 5.60269 19.1155 6.57703 19.1155ZM6.57703 20.1155C5.33469 20.1155 4.27411 19.676 3.39528 18.797C2.51644 17.9181 2.07703 16.8576 2.07703 15.6155C2.07703 14.4115 2.49403 13.3925 3.32803 12.5587C4.16186 11.7247 5.18069 11.3077 6.38453 11.3077C7.29486 11.3077 8.12086 11.5657 8.86253 12.0817C9.60419 12.5977 10.1302 13.282 10.4405 14.1345C11.2789 14.1345 12.0272 14.387 12.6855 14.8922C13.3439 15.3974 13.6794 16.1435 13.6923 17.1307C13.6846 17.9525 13.3914 18.6555 12.8125 19.2395C12.2337 19.8235 11.5269 20.1155 10.6923 20.1155H6.57703ZM13.6538 16.7462C13.6089 16.5795 13.5641 16.418 13.5193 16.2615C13.4744 16.1051 13.4295 15.9436 13.3845 15.777C14.173 15.4475 14.8061 14.9461 15.2838 14.273C15.7613 13.6 16 12.8423 16 12C16 10.9 15.6084 9.95829 14.825 9.17495C14.0417 8.39162 13.1 7.99995 12 7.99995C10.9615 7.99995 10.0609 8.34737 9.29803 9.0422C8.53519 9.73704 8.11278 10.6037 8.03078 11.6422C7.86411 11.5974 7.69553 11.5545 7.52503 11.5135C7.35453 11.4725 7.18594 11.4295 7.01928 11.3845C7.17561 10.123 7.72853 9.07687 8.67803 8.2462C9.62736 7.41537 10.7347 6.99995 12 6.99995C13.3847 6.99995 14.5642 7.48712 15.5385 8.46145C16.5129 9.43579 17 10.6153 17 12C17 13.0653 16.6943 14.0271 16.0828 14.8855C15.4713 15.7438 14.6616 16.364 13.6538 16.7462Z" fill="currentColor"/>
</svg>
